{"title":"Bright Star (2009) DVDRip AC3 - SANTi","uid":5282813,"size":1531812832,"categoryP":"video","categoryS":"movies","magnet":"?xt=urn:btih:01f9f88798ecacf9c8c20cf446588a0827b5b63b&amp;dn=Bright+Star+%282009%29+DVDRip+AC3+-+SANTi&amp;tr=udp%3A%2F%2Ftracker.openbittorrent.com%3A80&amp;tr=udp%3A%2F%2Fopen.demonii.com%3A1337&amp;tr=udp%3A%2F%2Ftracker.coppersurfer.tk%3A6969&amp;tr=udp%3A%2F%2Fexodus.desync.com%3A6969","seeders":9,"leechers":1,"uploader":"CODYBOSS1969","files":4,"time":1263609019,"description":"General\nComplete name                    : Bright Star (2009) DVDRip AC3 - SANTi \n                                               [santi-bs.dvdrip.xvid.avi]\nFormat                           : AVI\nFormat/Info                      : Audio Video Interleave\nFile size                        : 1.43 GiB\nDuration                         : 1h 59mn\nOverall bit rate                 : 1 714 Kbps\nWriting application              : VirtualDubMod 1.5.10.2 (build 2540/release)\nWriting library                  : VirtualDubMod build 2540/release\n\nVideo\nID                               : 0\nFormat                           : MPEG-4 Visual\nFormat profile                   : AdvancedSimple@L5\nFormat settings, BVOP            : Yes\nFormat settings, QPel            : No\nFormat settings, GMC             : No warppoints\nFormat settings, Matrix          : Default (MPEG)\nCodec ID                         : XVID\nCodec ID/Hint                    : XviD\nDuration                         : 1h 59mn\nBit rate                         : 1 257 Kbps\nWidth                            : 720 pixels\nHeight                           : 384 pixels\nDisplay aspect ratio             : 1.875\nFrame rate                       : 23.976 fps\nResolution                       : 24 bits\nColorimetry                      : 4:2:0\nScan type                        : Progressive\nBits/(Pixel*Frame)               : 0.190\nStream size                      : 1.05 GiB (73%)\nWriting library                  : XviD 1.2.1 (UTC 2008-12-04)\n\nAudio\nID                               : 1\nFormat                           : AC-3\nFormat/Info                      : Audio Coding 3\nCodec ID                         : 2000\nDuration                         : 1h 59mn\nBit rate mode                    : Constant\nBit rate                         : 448 Kbps\nChannel(s)                       : 6 channels\nChannel positions                : Front: L C R, Surround: L R, LFE\nSampling rate                    : 48.0 KHz\nStream size                      : 382 MiB (26%)\nAlignment                        : Split accross interleaves\nInterleave, duration             : 42 ms (1.00 video frame)\nInterleave, preload duration     : 500 ms\n &lt;a href=&quot;\nhttp://www.imdb.com/title/tt0810784/&quot; rel=&quot;nofollow&quot; target=&quot;_NEW&quot;&gt;\nhttp://www.imdb.com/title/tt0810784/&lt;/a&gt;\n\nIMDB rating: 7,5/10 of 2.070 votes\n\n\n\nSubtitles included in the torrent: ENGLISH, ROMANIAN\n\n\n\nDON'T FORGET TO SEED !\n\nHIT AND RUN IS NOT AN OPTION BECAUSE THIS IS ... A TORRENT !\n","torrent":{"xt":"urn:btih:01f9f88798ecacf9c8c20cf446588a0827b5b63b","amp;dn":"Bright+Star+%282009%29+DVDRip+AC3+-+SANTi","amp;tr":["udp%3A%2F%2Ftracker.openbittorrent.com%3A80","udp%3A%2F%2Fopen.demonii.com%3A1337","udp%3A%2F%2Ftracker.coppersurfer.tk%3A6969","udp%3A%2F%2Fexodus.desync.com%3A6969"],"infoHash":"01f9f88798ecacf9c8c20cf446588a0827b5b63b","infoHashBuffer":{"type":"Buffer","data":[1,249,248,135,152,236,172,249,200,194,12,244,70,88,138,8,39,181,182,59]},"announce":[],"urlList":[]}}